<svg xmlns="http://www.w3.org/2000/svg" width="99.874" height="103.878" viewBox="0 0 99.874 103.878">
  <path id="Icon_awesome-github" data-name="Icon awesome-github" d="M33.405,84.205c0,.43-.463.773-1.047.773-.664.064-1.128-.279-1.128-.773,0-.43.463-.773,1.047-.773C32.882,83.368,33.405,83.711,33.405,84.205Zm-6.262-.967c-.141.43.262.924.866,1.053a.918.918,0,0,0,1.248-.43c.121-.43-.262-.924-.866-1.117A1.007,1.007,0,0,0,27.143,83.239Zm8.9-.365c-.584.15-.987.558-.926,1.053.06.43.584.709,1.188.558.584-.15.987-.558.926-.988C37.171,83.088,36.627,82.809,36.043,82.874ZM49.293.563C21.364.563,0,23.181,0,52.974c0,23.821,14.055,44.206,34.13,51.38,2.577.494,3.484-1.2,3.484-2.6,0-1.332-.06-8.678-.06-13.189,0,0-14.1,3.222-17.055-6.4,0,0-2.3-6.251-5.6-7.862,0,0-4.611-3.372.322-3.308A10.533,10.533,0,0,1,23,76.537c4.41,8.291,11.8,5.907,14.679,4.489A12.257,12.257,0,0,1,40.9,73.788C29.64,72.456,18.283,70.716,18.283,50.052c0-5.907,1.53-8.871,4.752-12.652a21.559,21.559,0,0,1,.524-14.585c4.208-1.4,13.894,5.8,13.894,5.8a44.7,44.7,0,0,1,25.291,0s9.685-7.217,13.894-5.8A21.548,21.548,0,0,1,77.161,37.4c3.222,3.8,5.2,6.766,5.2,12.652,0,20.728-11.86,22.382-23.116,23.735,1.853,1.7,3.423,4.919,3.423,9.967,0,7.239-.06,16.2-.06,17.957,0,1.4.926,3.093,3.484,2.6,20.136-7.131,33.788-27.516,33.788-51.337C99.874,23.181,77.221.563,49.293.563ZM19.572,74.647c-.262.215-.2.709.141,1.117.322.344.785.494,1.047.215.262-.215.2-.709-.141-1.117C20.3,74.518,19.834,74.368,19.572,74.647ZM17.4,72.907c-.141.279.06.623.463.838a.577.577,0,0,0,.866-.15c.141-.279-.06-.623-.463-.838C17.861,72.628,17.538,72.692,17.4,72.907Zm6.524,7.647c-.322.279-.2.924.262,1.332.463.494,1.047.558,1.309.215.262-.279.141-.924-.262-1.332C24.787,80.275,24.183,80.21,23.921,80.554Zm-2.3-3.158c-.322.215-.322.773,0,1.267s.866.709,1.128.494a1.028,1.028,0,0,0,0-1.332C22.472,77.332,21.948,77.117,21.626,77.4Z" transform="translate(0 -0.563)"/>
</svg>
