<svg xmlns="http://www.w3.org/2000/svg" width="93.984" height="93.983" viewBox="0 0 93.984 93.983">
  <path id="Icon_awesome-linkedin" data-name="Icon awesome-linkedin" d="M87.271,2.25H6.692A6.742,6.742,0,0,0,0,9.026V89.458a6.742,6.742,0,0,0,6.692,6.776H87.271a6.76,6.76,0,0,0,6.713-6.776V9.026A6.76,6.76,0,0,0,87.271,2.25ZM28.4,82.807H14.475V37.955H28.426V82.807ZM21.44,31.83a8.077,8.077,0,1,1,8.077-8.077A8.08,8.08,0,0,1,21.44,31.83ZM80.62,82.807H66.691V60.99c0-5.2-.1-11.895-7.238-11.895-7.259,0-8.37,5.664-8.37,11.517v22.2H37.153V37.955H50.516v6.126h.189c1.867-3.524,6.419-7.238,13.2-7.238,14.1,0,16.72,9.293,16.72,21.377Z" transform="translate(0 -2.25)"/>
</svg>
