<svg xmlns="http://www.w3.org/2000/svg" width="99.546" height="99.542" viewBox="0 0 99.546 99.542">
  <path id="Icon_awesome-facebook-messenger" data-name="Icon awesome-facebook-messenger" d="M50.446.563C22.342.563.563,21.1.563,48.844A47.187,47.187,0,0,0,16.231,84.557c1.676,1.507,1.331,2.38,1.616,11.687a4,4,0,0,0,5.6,3.526C34.061,95.093,34.2,94.724,36,95.214c30.765,8.467,64.111-11.221,64.111-46.369C100.109,21.1,78.552.563,50.446.563ZM80.4,37.718,65.747,60.912a7.5,7.5,0,0,1-10.82,1.993L43.271,54.181a3.01,3.01,0,0,0-3.613,0L23.93,66.111A2.366,2.366,0,0,1,20.5,62.966L35.147,39.771a7.5,7.5,0,0,1,10.82-1.993L57.619,46.5a3.011,3.011,0,0,0,3.613,0L76.968,34.583a2.36,2.36,0,0,1,3.43,3.135Z" transform="translate(-0.563 -0.563)"/>
</svg>
